G04 Layer_Color=16711935*
%FSLAX25Y25*%
%MOIN*%
G70*
G01*
G75*
%ADD16C,0.00787*%
%ADD20C,0.00000*%
%ADD21C,0.00394*%
D16*
X-15748Y-14567D02*
X-15614Y-15586D01*
X-15221Y-16535D01*
X-14595Y-17351D01*
X-13780Y-17977D01*
X-12830Y-18370D01*
X-11811Y-18504D01*
X11811Y-18504D02*
X12830Y-18370D01*
X13780Y-17977D01*
X14595Y-17351D01*
X15221Y-16535D01*
X15614Y-15586D01*
X15748Y-14567D01*
X15748Y11811D02*
X15614Y12830D01*
X15221Y13780D01*
X14595Y14595D01*
X13780Y15221D01*
X12830Y15614D01*
X11811Y15748D01*
X-11811Y15748D02*
X-12830Y15614D01*
X-13780Y15221D01*
X-14595Y14595D01*
X-15221Y13780D01*
X-15614Y12830D01*
X-15748Y11811D01*
X15748Y-14567D02*
X15748Y11811D01*
X-15748Y11811D02*
X-15748Y-14567D01*
X-11811Y15748D02*
X11811Y15748D01*
X-11809Y-18504D02*
X11813Y-18504D01*
D20*
X-1200Y9367D02*
X-848Y8518D01*
X0Y8167D01*
X848Y8518D01*
X1200Y9367D01*
X-7900Y6500D02*
Y8500D01*
X-12200D02*
X-7900D01*
X-12200Y6500D02*
Y8500D01*
Y6500D02*
X-7900D01*
Y1500D02*
Y3500D01*
X-12200D02*
X-7900D01*
X-12200Y1500D02*
Y3500D01*
Y1500D02*
X-7900D01*
Y-3500D02*
Y-1500D01*
X-12200D02*
X-7900D01*
X-12200Y-3500D02*
Y-1500D01*
Y-3500D02*
X-7900D01*
Y-8500D02*
Y-6500D01*
X-12200D02*
X-7900D01*
X-12200Y-8500D02*
Y-6500D01*
Y-8500D02*
X-7900D01*
X7900D02*
Y-6500D01*
Y-8500D02*
X12200D01*
Y-6500D01*
X7900D02*
X12200D01*
X7900Y-3500D02*
Y-1500D01*
Y-3500D02*
X12200D01*
Y-1500D01*
X7900D02*
X12200D01*
X7900Y1500D02*
Y3500D01*
Y1500D02*
X12200D01*
Y3500D01*
X7900D02*
X12200D01*
X7900Y6500D02*
Y8500D01*
Y6500D02*
X12200D01*
Y8500D01*
X7900D02*
X12200D01*
X-7900Y-9800D02*
X7900D01*
Y9800D01*
X1200D02*
X7900D01*
X-1200Y9367D02*
X1200D01*
X-7900Y9800D02*
X-1200D01*
X-7900Y-9800D02*
Y9800D01*
D21*
X-3051Y10531D02*
X3051D01*
X-3051D02*
Y13878D01*
X3051D01*
Y10531D02*
Y13878D01*
M02*
