G04 Layer_Physical_Order=1*
G04 Layer_Color=255*
%FSLAX25Y25*%
%MOIN*%
G70*
G01*
G75*
%ADD10R,0.06102X0.02362*%
%ADD11R,0.02756X0.03543*%
%ADD12C,0.00591*%
%ADD13C,0.03937*%
G36*
X11811Y14837D02*
Y14830D01*
X12592Y14727D01*
X13321Y14426D01*
X13946Y13946D01*
X14426Y13321D01*
X14727Y12593D01*
X14830Y11811D01*
X14837D01*
Y-14567D01*
X14832D01*
X14729Y-15348D01*
X14427Y-16076D01*
X13948Y-16702D01*
X13322Y-17181D01*
X12594Y-17483D01*
X11813Y-17586D01*
X11534Y-17202D01*
X11508Y-17093D01*
X12026Y-16318D01*
X12218Y-15354D01*
X12026Y-14391D01*
X11480Y-13575D01*
X10664Y-13029D01*
X10511Y-12999D01*
Y-9181D01*
X14181D01*
Y-5819D01*
X7079D01*
Y-9181D01*
X8889D01*
Y-12999D01*
X8738Y-13029D01*
X7921Y-13575D01*
X7376Y-14391D01*
X7184Y-15354D01*
X7376Y-16318D01*
X7893Y-17093D01*
X7776Y-17593D01*
X5158D01*
X5041Y-17093D01*
X5559Y-16318D01*
X5750Y-15354D01*
X5559Y-14391D01*
X5013Y-13575D01*
X4197Y-13029D01*
X4044Y-12999D01*
Y-4189D01*
X4922Y-3311D01*
X7079D01*
Y-4181D01*
X14181D01*
Y-819D01*
X7079D01*
Y-1689D01*
X4587D01*
X4587Y-1689D01*
X4276Y-1751D01*
X4013Y-1927D01*
X3416Y-2524D01*
X2954Y-2333D01*
Y-161D01*
X4804Y1689D01*
X7079D01*
Y819D01*
X14181D01*
Y4181D01*
X7079D01*
Y3311D01*
X4469D01*
X4468Y3311D01*
X4158Y3249D01*
X3895Y3073D01*
X3895Y3073D01*
X1570Y748D01*
X1394Y485D01*
X1332Y174D01*
Y-9644D01*
X-2140Y-13115D01*
X-2269Y-13029D01*
X-3232Y-12837D01*
X-4195Y-13029D01*
X-5012Y-13575D01*
X-5557Y-14391D01*
X-5749Y-15354D01*
X-5557Y-16318D01*
X-5039Y-17093D01*
X-5157Y-17593D01*
X-7774D01*
X-7892Y-17093D01*
X-7374Y-16318D01*
X-7182Y-15354D01*
X-7374Y-14391D01*
X-7920Y-13575D01*
X-8736Y-13029D01*
X-9699Y-12837D01*
X-10662Y-13029D01*
X-11479Y-13575D01*
X-11754Y-13986D01*
X-12397Y-14049D01*
X-13748Y-12698D01*
Y-9181D01*
X-11130D01*
Y-7500D01*
Y-5819D01*
X-13748D01*
Y-4895D01*
X-13034Y-4181D01*
X-7079D01*
Y-819D01*
X-14181D01*
Y-2769D01*
X-14337Y-2884D01*
X-14837Y-2633D01*
Y11811D01*
X-14830D01*
X-14727Y12592D01*
X-14426Y13321D01*
X-13946Y13946D01*
X-13321Y14426D01*
X-12592Y14727D01*
X-11811Y14830D01*
Y14837D01*
X-5168D01*
X-4831Y14476D01*
X-4831Y14337D01*
Y12705D01*
X-2953D01*
X-1075D01*
Y14337D01*
X-1075Y14476D01*
X-738Y14837D01*
X738D01*
X1075Y14476D01*
X1075Y14337D01*
Y9933D01*
X4831D01*
Y11394D01*
X7345D01*
X7376Y11242D01*
X7921Y10425D01*
X8738Y9879D01*
X8890Y9849D01*
Y9181D01*
X7079D01*
Y5819D01*
X14181D01*
Y9181D01*
X10512D01*
Y9849D01*
X10664Y9879D01*
X11480Y10425D01*
X12026Y11242D01*
X12218Y12205D01*
X12026Y13168D01*
X11480Y13984D01*
X10953Y14337D01*
X11105Y14837D01*
X11811D01*
X11811Y14837D01*
D02*
G37*
%LPC*%
G36*
X-7079Y4181D02*
X-14181D01*
Y819D01*
X-7079D01*
Y4181D01*
D02*
G37*
G36*
Y-8000D02*
X-10130D01*
Y-9181D01*
X-7079D01*
Y-8000D01*
D02*
G37*
G36*
Y-5819D02*
X-10130D01*
Y-7000D01*
X-7079D01*
Y-5819D01*
D02*
G37*
G36*
X-1075Y11705D02*
X-2453D01*
Y9933D01*
X-1075D01*
Y11705D01*
D02*
G37*
G36*
X-3453D02*
X-4831D01*
Y9933D01*
X-3453D01*
Y11705D01*
D02*
G37*
G36*
X-7079Y9181D02*
X-14181D01*
Y5819D01*
X-7079D01*
Y9181D01*
D02*
G37*
%LPD*%
D10*
X10630Y7500D02*
D03*
Y2500D02*
D03*
Y-2500D02*
D03*
Y-7500D02*
D03*
X-10630D02*
D03*
Y-2500D02*
D03*
Y2500D02*
D03*
Y7500D02*
D03*
D11*
X2953Y12205D02*
D03*
X-2953D02*
D03*
D12*
X-14559Y-13034D02*
Y-4559D01*
X3233Y-15354D02*
Y-3853D01*
X9700Y-15353D02*
Y-7500D01*
X2143Y-9979D02*
Y174D01*
X9700Y-16141D02*
Y-15748D01*
X3233Y-16535D02*
Y-15354D01*
X9700Y-16535D02*
Y-16142D01*
X-3232Y-15354D02*
X2143Y-9979D01*
X9700Y-15747D02*
Y-15353D01*
X-10630Y-2500D02*
X-9700D01*
X-12500D02*
X-10630D01*
X-14559Y-4559D02*
X-12500Y-2500D01*
X-14559Y-13034D02*
X-12239Y-15354D01*
X-9699D01*
X4587Y-2500D02*
X9700D01*
X3233Y-3853D02*
X4587Y-2500D01*
X4468Y2500D02*
X9700D01*
X2143Y174D02*
X4468Y2500D01*
X9700Y-15353D02*
X9701Y-15354D01*
X2953Y12205D02*
X2953Y12205D01*
X9701D01*
X9700Y7500D02*
X9701Y7501D01*
Y12205D01*
D13*
X-3232Y-15354D02*
D03*
X3233D02*
D03*
X9701D02*
D03*
X-9699D02*
D03*
X9701Y12205D02*
D03*
X-9701Y12205D02*
D03*
M02*
